<svg width="283" height="113" viewBox="0 0 283 113" fill="none" xmlns="http://www.w3.org/2000/svg">
<rect y="8" width="282.905" height="105" rx="14" fill="white"/>
<path d="M78.403 80.0781H75.317C73.9889 80.0781 72.5957 79.6745 71.1374 78.8672C69.7051 78.0599 68.1686 76.875 66.528 75.3125C65.4603 76.849 64.1452 78.0339 62.5827 78.8672C61.0462 79.6745 59.2884 80.0781 57.3092 80.0781H35.7467L34.653 73.0859H56.8014C59.2754 73.0859 60.5124 72.2266 60.5124 70.5078C60.5124 69.4922 60.1608 68.6198 59.4577 67.8906L43.8327 51.2891L48.6374 46.4844L69.5749 68.6328C70.4863 69.6224 71.2415 70.3906 71.8405 70.9375C72.4394 71.4844 72.9082 71.849 73.2467 72.0312C74.4186 72.7344 76.1374 73.0859 78.403 73.0859V80.0781ZM91.0592 47.2266C91.0592 48.5547 90.5644 49.7396 89.5749 50.7812C88.5853 51.7708 87.4264 52.2656 86.0983 52.2656C82.5566 52.2656 80.7858 50.5859 80.7858 47.2266C80.7858 44.4922 82.4525 43.125 85.7858 43.125C89.3014 43.125 91.0592 44.4922 91.0592 47.2266ZM106.059 80.0781H103.715C99.4186 80.0781 96.2025 79.1536 94.067 77.3047C91.7754 79.1536 89.5879 80.0781 87.5045 80.0781H76.0592V73.0859C83.2467 73.0859 87.2702 72.9036 88.1295 72.5391C89.666 72.0703 90.4342 70 90.4342 66.3281C90.4342 66.0417 90.4342 65.7031 90.4342 65.3125C90.4342 64.9219 90.4212 64.4661 90.3952 63.9453C90.3952 63.7109 90.3822 63.4635 90.3561 63.2031C90.3561 62.9427 90.3561 62.6693 90.3561 62.3828C90.3301 61.6016 90.317 60.8073 90.317 60C90.317 59.1667 90.317 58.5417 90.317 58.125H97.4264V67.7344C97.4264 71.0938 100.304 72.8776 106.059 73.0859V80.0781ZM120.083 69.4531C120.083 72.7865 119.093 75.3906 117.114 77.2656C115.135 79.1406 112.439 80.0781 109.028 80.0781H103.794V73.0859H108.481C110.669 72.9036 112.062 72.3177 112.661 71.3281C113.025 70.7552 113.208 69.0885 113.208 66.3281V35.4688H120.083V69.4531ZM155.356 80.0781C151.971 80.0781 149.523 78.9974 148.012 76.8359C147.986 82.6172 146.515 87.4479 143.598 91.3281C140.499 95.5208 136.072 97.6172 130.317 97.6172H121.333L120.161 90.5859H129.926C131.333 90.5859 132.674 90.3385 133.95 89.8438C135.226 89.375 136.398 88.6979 137.465 87.8125C138.533 86.8229 139.367 85.7161 139.965 84.4922C140.564 83.2422 140.864 81.9271 140.864 80.5469V58.125H147.934V68.1641C147.934 71.237 150.408 72.8776 155.356 73.0859V80.0781ZM168.012 90.8203C168.012 92.1484 167.544 93.2812 166.606 94.2188C166.163 94.6615 165.643 95 165.044 95.2344C164.445 95.4948 163.807 95.625 163.13 95.625C159.588 95.625 157.817 94.0234 157.817 90.8203C157.817 88.0339 159.484 86.6406 162.817 86.6406C166.281 86.6406 168.012 88.0339 168.012 90.8203ZM182.309 80.0781H180.005C176.15 80.0781 173.156 79.1536 171.02 77.3047C168.781 79.1536 166.593 80.0781 164.458 80.0781H153.012V73.0859C160.148 73.0859 164.184 72.9036 165.122 72.5391C166.632 72.0703 167.387 70 167.387 66.3281C167.387 66.0417 167.387 65.6901 167.387 65.2734C167.387 64.8568 167.374 64.388 167.348 63.8672C167.348 63.6328 167.335 63.3984 167.309 63.1641C167.309 62.9036 167.309 62.6302 167.309 62.3438C167.283 61.5625 167.27 60.7682 167.27 59.9609C167.27 59.1536 167.27 58.5417 167.27 58.125H174.497V67.7344C174.497 70 175.265 71.4714 176.801 72.1484C177.739 72.5651 179.575 72.8776 182.309 73.0859V80.0781ZM205.278 66.3281C205.278 61.4583 203.351 59.0234 199.497 59.0234C195.512 59.0234 193.52 61.6276 193.52 66.8359C193.52 71.6797 195.512 74.1016 199.497 74.1016C203.351 74.1016 205.278 71.5104 205.278 66.3281ZM217.817 80.0781C215.473 80.0781 213.794 79.8568 212.778 79.4141C211.372 78.7891 210.187 77.6823 209.223 76.0938C207.166 79.4271 203.95 81.0938 199.575 81.0938C197.908 81.0938 196.189 80.5859 194.419 79.5703C193.559 79.0495 192.804 78.5026 192.153 77.9297C191.502 77.3568 190.955 76.7448 190.512 76.0938C189.809 78.6719 186.294 80 179.965 80.0781V73.0859C183.82 73.0859 186.098 72.7083 186.801 71.9531C187.062 71.5104 187.192 69.7266 187.192 66.6016C187.192 62.3568 188.208 58.9714 190.239 56.4453C192.479 53.6328 195.682 52.2266 199.848 52.2266C203.572 52.2266 206.528 53.6719 208.715 56.5625C210.59 59.2708 211.593 62.6172 211.723 66.6016C211.723 68.0599 211.762 69.0104 211.84 69.4531C211.997 71.1198 212.596 72.1484 213.637 72.5391C213.872 72.6432 214.327 72.7344 215.005 72.8125C215.708 72.8906 216.645 72.9818 217.817 73.0859V80.0781ZM241.02 66.6016C241.02 61.5495 239.054 59.0234 235.122 59.0234C231.111 59.0234 229.106 61.6276 229.106 66.8359C229.106 71.6797 231.111 74.1016 235.122 74.1016C239.054 74.1016 241.02 71.6016 241.02 66.6016ZM247.231 67.0312C247.231 70.9896 246.229 74.2318 244.223 76.7578C242.01 79.6484 238.976 81.0938 235.122 81.0938C233.637 81.0938 232.231 80.8594 230.903 80.3906C229.575 79.9219 228.351 79.2578 227.231 78.3984C224.939 79.362 221.033 79.9219 215.512 80.0781V73.0859C219.419 73.0859 221.71 72.7083 222.387 71.9531V71.9922C222.439 71.862 222.492 71.3281 222.544 70.3906C222.622 69.4531 222.687 68.1901 222.739 66.6016C222.947 62.0182 224.106 58.4766 226.215 55.9766C228.325 53.4766 231.385 52.2266 235.395 52.2266C239.223 52.2266 242.244 53.763 244.458 56.8359C246.307 59.5443 247.231 62.9427 247.231 67.0312Z" fill="url(#paint0_linear_219_19025)"/>
<defs>
<linearGradient id="paint0_linear_219_19025" x1="143.299" y1="0" x2="143.299" y2="113" gradientUnits="userSpaceOnUse">
<stop stop-color="#8600FF"/>
<stop offset="1" stop-color="#6EAFFF"/>
</linearGradient>
</defs>
</svg>
