<svg width="149" height="149" viewBox="0 0 149 149" fill="none" xmlns="http://www.w3.org/2000/svg">
<circle cx="74.5" cy="74.5" r="74.5" fill="white"/>
<path d="M86.5006 44.334C94.634 44.334 102.434 47.5649 108.185 53.316C113.936 59.0672 117.167 66.8673 117.167 75.0007C117.167 83.134 113.936 90.9342 108.185 96.6853C102.434 102.436 94.634 105.667 86.5006 105.667C78.3673 105.667 70.5672 102.436 64.816 96.6853C59.0649 90.9342 55.834 83.134 55.834 75.0007C55.834 66.8673 59.0649 59.0672 64.816 53.316C70.5672 47.5649 78.3673 44.334 86.5006 44.334ZM86.5006 52.0007C80.4007 52.0007 74.5505 54.4239 70.2372 58.7372C65.9239 63.0505 63.5006 68.9007 63.5006 75.0007C63.5006 81.1006 65.9239 86.9508 70.2372 91.2641C74.5505 95.5775 80.4007 98.0007 86.5006 98.0007C92.6006 98.0007 98.4508 95.5775 102.764 91.2641C107.077 86.9508 109.501 81.1006 109.501 75.0007C109.501 68.9007 107.077 63.0505 102.764 58.7372C98.4508 54.4239 92.6006 52.0007 86.5006 52.0007ZM82.6673 59.6673H88.4173V74.1573L97.349 83.089L93.2856 87.1523L82.6673 76.534V59.6673ZM36.6673 98.0007C35.6507 98.0007 34.6756 97.5968 33.9567 96.8779C33.2379 96.159 32.834 95.184 32.834 94.1673C32.834 93.1507 33.2379 92.1756 33.9567 91.4567C34.6756 90.7379 35.6507 90.334 36.6673 90.334H51.349C52.5373 93.0557 54.0707 95.624 55.834 98.0007H36.6673ZM40.5007 78.834C39.484 78.834 38.509 78.4301 37.7901 77.7112C37.0712 76.9923 36.6673 76.0173 36.6673 75.0007C36.6673 73.984 37.0712 73.009 37.7901 72.2901C38.509 71.5712 39.484 71.1673 40.5007 71.1673H48.359L48.1673 75.0007L48.359 78.834H40.5007ZM44.334 59.6673C43.3173 59.6673 42.3423 59.2635 41.6234 58.5446C40.9045 57.8257 40.5007 56.8506 40.5007 55.834C40.5007 54.8173 40.9045 53.8423 41.6234 53.1234C42.3423 52.4045 43.3173 52.0007 44.334 52.0007H55.834C54.0707 54.3773 52.5373 56.9457 51.349 59.6673H44.334Z" fill="url(#paint0_linear_219_19040)"/>
<defs>
<linearGradient id="paint0_linear_219_19040" x1="75.0006" y1="44.334" x2="75.0006" y2="105.667" gradientUnits="userSpaceOnUse">
<stop stop-color="#9C1FFF"/>
<stop offset="1" stop-color="#0D4BF4"/>
</linearGradient>
</defs>
</svg>
