<svg width="149" height="149" viewBox="0 0 149 149" fill="none" xmlns="http://www.w3.org/2000/svg">
<circle cx="74.5" cy="74.5" r="74.5" fill="white"/>
<path d="M75 113.333L74.0417 101.833H73.0833C64.0111 101.833 56.3125 98.6702 49.9875 92.3452C43.6625 86.0202 40.5 78.3216 40.5 69.2493C40.5 60.1771 43.6625 52.4785 49.9875 46.1535C56.3125 39.8285 64.0111 36.666 73.0833 36.666C77.6194 36.666 81.8527 37.5119 85.7832 39.2037C89.7136 40.8955 93.1636 43.2274 96.1332 46.1995C99.1027 49.1716 101.433 52.6216 103.125 56.5495C104.817 60.4774 105.664 64.7107 105.667 69.2493C105.667 74.041 104.883 78.641 103.317 83.0494C101.75 87.4577 99.61 91.5466 96.896 95.316C94.182 99.0855 90.9556 102.504 87.2168 105.57C83.4781 108.637 79.4058 111.224 75 113.333ZM72.9875 90.2369C74.0736 90.2369 75 89.8535 75.7667 89.0868C76.5333 88.3202 76.9167 87.3938 76.9167 86.3077C76.9167 85.2216 76.5333 84.2952 75.7667 83.5285C75 82.7618 74.0736 82.3785 72.9875 82.3785C71.9014 82.3785 70.975 82.7618 70.2083 83.5285C69.4417 84.2952 69.0583 85.2216 69.0583 86.3077C69.0583 87.3938 69.4417 88.3202 70.2083 89.0868C70.975 89.8535 71.9014 90.2369 72.9875 90.2369ZM70.2083 78.066H75.9583C75.9583 76.1493 76.15 74.8077 76.5333 74.041C76.9167 73.2743 78.1306 71.8688 80.175 69.8243C81.325 68.6743 82.2833 67.4285 83.05 66.0868C83.8167 64.7452 84.2 63.3077 84.2 61.7743C84.2 58.516 83.0973 56.0716 80.8918 54.4412C78.6864 52.8107 76.0836 51.9968 73.0833 51.9993C70.2722 51.9993 67.9083 52.7826 65.9917 54.3492C64.075 55.9157 62.7333 57.8158 61.9667 60.0494L67.3333 62.1577C67.6528 61.0716 68.2597 60.0008 69.1542 58.9453C70.0486 57.8899 71.3583 57.3635 73.0833 57.366C74.8083 57.366 76.1014 57.8452 76.9627 58.8035C77.8239 59.7618 78.2558 60.816 78.2583 61.966C78.2583 63.0521 77.9389 64.0271 77.3 64.8908C76.6611 65.7546 75.8944 66.6325 75 67.5243C72.7639 69.441 71.4056 70.959 70.9252 72.0783C70.4447 73.1977 70.2058 75.1936 70.2083 78.066Z" fill="url(#paint0_linear_219_19047)"/>
<defs>
<linearGradient id="paint0_linear_219_19047" x1="73.0833" y1="36.666" x2="73.0833" y2="113.333" gradientUnits="userSpaceOnUse">
<stop stop-color="#A541FF"/>
<stop offset="1" stop-color="#3165F3"/>
</linearGradient>
</defs>
</svg>
