<svg width="149" height="149" viewBox="0 0 149 149" fill="none" xmlns="http://www.w3.org/2000/svg">
<circle cx="74.5" cy="74.5" r="74.5" fill="white"/>
<path fill-rule="evenodd" clip-rule="evenodd" d="M74.0751 40.5C65.4175 40.5 57.5304 43.3597 52.8633 45.6961C52.4417 45.9069 52.0488 46.1139 51.6827 46.3133C50.9582 46.7081 50.341 47.0761 49.8503 47.4L55.1595 55.2162L57.6588 56.2109C67.4262 61.1387 80.5247 61.1387 90.2939 56.2109L93.1306 54.7389L98.1503 47.4C97.1106 46.7216 96.0294 46.109 94.9131 45.5657C90.269 43.2542 82.5698 40.5 74.077 40.5H74.0751ZM61.7279 49.3473C59.8479 48.9956 57.991 48.5296 56.1677 47.952C60.5396 46.0104 67.0543 43.95 74.0751 43.95C78.9377 43.95 83.5358 44.939 87.3384 46.1925C82.8822 46.8193 78.1269 47.883 73.5959 49.1921C70.0309 50.2233 65.8641 50.1121 61.7279 49.3473ZM92.3179 59.0533L91.8464 59.291C81.1016 64.7113 66.8493 64.7113 56.1044 59.291L55.6578 59.0648C39.5157 76.7768 27.1915 109.494 74.0751 109.494C120.959 109.494 108.334 76.1653 92.3179 59.0533ZM72.0837 75C71.067 75 70.092 75.4039 69.3731 76.1228C68.6542 76.8416 68.2503 77.8167 68.2503 78.8333C68.2503 79.85 68.6542 80.825 69.3731 81.5439C70.092 82.2628 71.067 82.6667 72.0837 82.6667V75ZM75.917 71.1667V69.25H72.0837V71.1667C70.0504 71.1667 68.1003 71.9744 66.6625 73.4122C65.2248 74.85 64.417 76.8 64.417 78.8333C64.417 80.8667 65.2248 82.8167 66.6625 84.2545C68.1003 85.6923 70.0504 86.5 72.0837 86.5V94.1667C70.4162 94.1667 68.9959 93.1029 68.4669 91.6118C68.3884 91.3678 68.2618 91.142 68.0946 90.9479C67.9273 90.7537 67.7228 90.595 67.4932 90.4813C67.2635 90.3675 67.0134 90.3009 66.7576 90.2855C66.5018 90.2701 66.2455 90.3062 66.0038 90.3915C65.7622 90.4769 65.5401 90.6099 65.3508 90.7826C65.1614 90.9553 65.0086 91.1642 64.9014 91.397C64.7942 91.6297 64.7348 91.8817 64.7267 92.1378C64.7185 92.394 64.7618 92.6491 64.854 92.8883C65.3827 94.3832 66.3618 95.6775 67.6566 96.593C68.9513 97.5084 70.498 98 72.0837 98V99.9167H75.917V98C77.9503 98 79.9004 97.1923 81.3382 95.7545C82.7759 94.3167 83.5837 92.3667 83.5837 90.3333C83.5837 88.3 82.7759 86.35 81.3382 84.9122C79.9004 83.4744 77.9503 82.6667 75.917 82.6667V75C77.5845 75 79.0048 76.0638 79.5338 77.5549C79.6122 77.7989 79.7389 78.0246 79.9061 78.2188C80.0734 78.413 80.2779 78.5716 80.5075 78.6854C80.7371 78.7992 80.9873 78.8657 81.2431 78.8811C81.4989 78.8965 81.7552 78.8605 81.9968 78.7751C82.2385 78.6897 82.4605 78.5568 82.6499 78.3841C82.8392 78.2114 82.992 78.0025 83.0992 77.7697C83.2065 77.5369 83.2659 77.285 83.274 77.0289C83.2822 76.7727 83.2389 76.5175 83.1467 76.2784C82.618 74.7835 81.6389 73.4892 80.3441 72.5737C79.0494 71.6583 77.5027 71.1667 75.917 71.1667ZM75.917 86.5V94.1667C76.9337 94.1667 77.9087 93.7628 78.6276 93.0439C79.3465 92.325 79.7503 91.35 79.7503 90.3333C79.7503 89.3167 79.3465 88.3416 78.6276 87.6228C77.9087 86.9039 76.9337 86.5 75.917 86.5Z" fill="url(#paint0_linear_219_19054)"/>
<defs>
<linearGradient id="paint0_linear_219_19054" x1="74.0036" y1="40.5" x2="74.0036" y2="109.494" gradientUnits="userSpaceOnUse">
<stop stop-color="#1A38E3"/>
<stop offset="1" stop-color="#8600FF"/>
</linearGradient>
</defs>
</svg>
